<svg width="239" height="97" viewBox="0 0 239 97" fill="none" xmlns="http://www.w3.org/2000/svg">
<path d="M92.2278 82.6343C87.3534 86.4482 74.0131 97 51.1806 97C20.0105 97 0 77.1678 0 49.5806C0 21.9935 20.0105 0 55.5419 0C69.3953 0 79.4005 2.66973 87.3534 4.7038L90.3037 30.384L87.6099 31.1468C74.1414 12.8401 66.1885 5.46658 53.4895 5.46658C32.8377 5.46658 25.1414 23.7733 25.1414 49.4535C25.1414 75.6422 32.8377 91.5334 51.6937 91.5334C62.7251 91.5334 71.8325 86.194 72.2173 73.9895C72.4738 65.0904 69.7801 59.1153 64.9058 52.2503V51.9961H98V52.2503C93.6387 61.2765 92.2278 69.1586 92.2278 78.8204V82.6343Z" fill="#111111"/>
<path d="M210 93H173.413L139.43 47.1352L164.158 22.9959C174.859 12.959 174.426 5.59017 169.798 0.254103V0H205.662V0.254103C192.357 5.71721 181.512 13.7213 173.413 21.4713L161.121 33.7951L190.477 73.0533C196.84 81.5656 202.191 87.918 210 92.7459V93ZM104 93V92.7459C108.772 82.9631 110.652 77.6271 110.652 64.1598V28.8402C110.652 15.373 108.772 10.0369 104 0.254103V0H143.479V0.254103C138.707 10.0369 136.682 15.6271 136.682 28.7131V64.2869C136.682 77.373 138.707 82.9631 143.479 92.7459V93H104Z" fill="#111111"/>
<path d="M227.565 93C221.198 93 216 87.7022 216 81.5C216 75.2978 221.198 70 227.565 70C233.802 70 239 75.2978 239 81.5C239 87.7022 233.802 93 227.565 93Z" fill="#E85D2A"/>
</svg>
